<?xml version="1.0" standalone="no"?>
<!DOCTYPE svg PUBLIC "-//W3C//DTD SVG 20010904//EN"
 "http://www.w3.org/TR/2001/REC-SVG-20010904/DTD/svg10.dtd">
<svg version="1.0" xmlns="http://www.w3.org/2000/svg"
 width="338.000000pt" height="448.000000pt" viewBox="0 0 338.000000 448.000000"
 preserveAspectRatio="xMidYMid meet">
<metadata>
Created by potrace 1.15, written by Peter Selinger 2001-2017
</metadata>
<g transform="translate(0.000000,448.000000) scale(0.100000,-0.100000)"
fill="#000000" stroke="none">
<path d="M0 4200 l0 -280 28 -17 c36 -23 42 -32 42 -70 0 -57 22 -85 33 -43 3
11 19 25 37 31 30 11 30 12 15 35 -21 33 -19 77 6 100 19 17 22 18 33 2 7 -9
25 -20 42 -24 43 -10 47 -15 26 -30 -11 -7 -25 -34 -31 -60 -11 -41 -14 -46
-36 -42 -34 7 -69 -41 -55 -77 7 -17 6 -25 -1 -25 -13 0 -69 60 -69 73 0 5 -9
20 -20 34 -11 14 -20 35 -20 47 0 12 -7 31 -15 42 -13 17 -14 -2 -14 -174 l0
-194 77 7 c42 3 109 8 147 10 39 2 124 11 190 19 66 8 154 17 195 20 41 2 92
7 112 11 26 5 50 1 78 -11 46 -20 36 -36 -19 -29 -18 2 -45 -2 -60 -9 -14 -8
-42 -15 -61 -17 -19 -2 -37 -6 -40 -9 -6 -6 -67 -35 -95 -45 -11 -4 -50 -8
-87 -10 -37 -1 -74 -7 -82 -14 -14 -12 -46 -11 -78 3 -23 10 -45 -3 -27 -15
11 -7 11 -9 -2 -9 -9 0 -19 -6 -22 -14 -7 -18 -99 -49 -120 -40 -11 4 -17 1
-17 -9 0 -16 -24 -30 -34 -20 -3 4 -6 17 -6 29 0 13 -4 26 -10 29 -5 3 -10 1
-10 -4 0 -6 -7 -11 -15 -11 -13 0 -15 -22 -15 -135 l0 -135 88 54 c48 29 125
78 172 108 207 133 403 216 484 203 23 -3 65 -8 93 -11 52 -6 53 -7 64 -46 7
-29 7 -44 0 -51 -6 -6 -11 -7 -11 -3 0 5 -8 2 -17 -5 -9 -8 -14 -9 -11 -4 4 6
3 17 -2 25 -6 10 -16 1 -39 -35 -29 -46 -39 -52 -258 -160 -125 -63 -281 -145
-346 -184 -104 -63 -123 -71 -167 -71 l-50 0 0 -822 c0 -453 4 -818 8 -813 8
12 92 17 92 6 0 -5 -7 -14 -16 -22 -8 -7 -24 -30 -35 -51 -11 -21 -25 -38 -31
-38 -9 0 -9 3 0 12 17 17 15 65 -3 72 -12 4 -15 -5 -15 -50 0 -34 4 -53 10
-49 5 3 10 2 10 -4 0 -5 -5 -13 -10 -16 -6 -4 -10 -54 -10 -116 l0 -111 38 30
c20 16 46 32 57 35 11 3 2 5 -20 3 -22 -2 -32 -1 -22 1 9 2 17 12 18 21 0 11
3 12 6 5 7 -18 40 -16 47 3 9 22 8 24 -9 24 -8 0 -15 5 -15 11 0 5 -6 7 -13 3
-9 -5 -9 -4 0 6 8 8 9 19 3 30 -5 9 -5 22 0 30 13 22 43 -8 37 -37 -3 -18 1
-25 19 -29 13 -3 30 -4 38 -1 8 3 22 -4 33 -15 18 -21 18 -21 -10 -14 -34 8
-34 4 3 -33 47 -47 106 -57 65 -10 -17 17 -17 22 -5 29 20 13 44 12 57 -1 15
-15 5 -39 -15 -39 -12 0 -13 -3 -4 -12 7 -7 12 -17 12 -23 0 -5 -4 -4 -9 4 -8
12 -12 12 -26 -2 -9 -10 -11 -17 -5 -17 6 0 27 -12 46 -26 27 -21 34 -23 34
-10 0 22 13 20 28 -4 8 -14 9 -20 1 -20 -7 0 -9 -9 -6 -22 3 -12 2 -29 -3 -38
-8 -14 -4 -19 19 -23 16 -3 41 -9 56 -13 24 -6 27 -4 22 10 -7 18 8 22 19 5
18 -29 -63 -47 -109 -24 -17 8 -37 15 -45 15 -9 0 -12 3 -9 7 4 3 0 15 -10 25
-9 10 -11 18 -6 18 6 0 16 -7 23 -15 15 -18 26 -19 33 -2 2 7 -7 26 -21 42
-14 17 -23 22 -19 13 4 -12 2 -15 -9 -11 -7 3 -14 0 -14 -6 0 -8 -8 -7 -22 3
-32 23 -42 20 -18 -6 23 -25 19 -38 -6 -17 -9 8 -24 14 -33 14 -9 0 -15 6 -14
13 2 6 -3 12 -11 12 -8 0 -22 3 -32 7 -12 4 -15 3 -10 -5 4 -7 2 -12 -6 -12
-7 0 -1 -11 14 -24 15 -13 24 -27 20 -30 -3 -4 1 -4 9 -1 9 3 22 -1 29 -10 7
-8 21 -15 32 -15 14 0 18 -5 15 -14 -4 -9 2 -17 14 -21 20 -7 27 -25 9 -25 -6
0 -27 7 -47 15 -40 17 -91 19 -113 5 -11 -7 -1 -9 35 -9 28 1 65 -6 84 -14
l33 -14 -32 -6 c-18 -4 -36 -4 -41 -1 -5 3 -9 3 -9 1 0 -3 15 -14 33 -24 25
-15 39 -18 57 -11 14 6 54 11 89 13 70 4 113 -12 164 -60 15 -14 33 -25 40
-24 29 4 37 -3 37 -31 0 -50 -86 -81 -112 -40 -7 11 -18 20 -25 20 -22 0 9 60
32 61 13 1 10 4 -10 9 -16 4 -47 17 -67 29 -33 20 -46 22 -100 16 l-63 -8 35
-29 c19 -16 27 -26 17 -22 -13 5 -16 2 -11 -12 4 -14 3 -16 -4 -5 -5 7 -14 11
-19 8 -6 -4 -23 7 -38 23 -30 31 -50 32 -107 4 -18 -9 -29 -10 -33 -4 -11 17
15 40 44 40 54 0 55 17 2 29 -64 14 -74 14 -66 1 3 -6 3 -10 -2 -10 -13 0 -35
17 -31 23 1 4 -5 16 -16 28 -20 24 -9 39 31 39 12 0 25 5 28 10 3 6 -3 10 -13
10 -11 0 -23 7 -26 16 -5 12 -14 15 -36 10 -44 -8 -39 19 5 34 19 6 35 16 35
21 0 14 -15 11 -49 -9 l-31 -17 0 -422 0 -423 249 0 249 0 -10 38 c-5 20 -12
62 -15 92 -4 48 -2 58 20 81 13 15 27 34 30 42 7 18 94 34 108 20 6 -6 4 -16
-5 -28 -13 -18 -15 -18 -39 -2 -30 19 -37 21 -37 8 0 -5 9 -11 20 -14 11 -3
23 -13 26 -24 10 -27 35 -53 45 -47 5 3 9 18 9 33 0 21 6 30 21 34 12 3 18 3
15 0 -3 -3 1 -12 9 -19 8 -8 11 -22 8 -30 -3 -9 0 -19 6 -24 7 -4 13 -24 14
-45 1 -46 -24 -70 -57 -53 -20 11 -20 11 -2 -16 29 -45 8 -44 -33 2 -21 23
-45 42 -54 42 -22 0 -21 -6 3 -37 11 -14 20 -32 20 -39 0 -11 33 -14 169 -14
94 0 172 4 176 9 3 5 -6 22 -20 37 -14 15 -28 39 -30 53 -3 14 -10 44 -16 66
-22 82 -22 97 -1 143 11 26 28 66 38 90 22 53 57 90 87 89 20 0 22 -5 25 -64
2 -36 8 -75 13 -87 6 -14 8 7 6 70 l-3 91 30 21 c17 12 40 24 51 28 11 4 32
16 48 26 29 21 33 18 17 -13 -7 -11 -7 -19 -1 -19 5 0 11 5 13 11 2 6 24 13
49 16 38 4 50 1 76 -21 17 -14 36 -26 42 -26 6 0 11 -13 11 -30 0 -16 3 -29 8
-29 4 1 10 0 15 -1 4 -1 13 -3 20 -4 6 0 12 -7 12 -13 0 -7 5 -13 10 -14 21
-2 35 -21 26 -38 -10 -19 -3 -44 10 -35 5 3 9 -6 9 -20 0 -16 6 -26 15 -26 15
0 51 -58 41 -67 -2 -3 -1 -16 4 -29 5 -13 6 -23 2 -22 -9 3 -52 -34 -52 -45 0
-5 10 -7 22 -4 l21 6 -20 -20 c-11 -11 -26 -21 -34 -22 -20 -4 -59 -39 -53
-49 3 -5 -2 -20 -10 -33 -9 -14 -13 -25 -8 -25 25 0 201 154 206 180 7 36 19
51 37 47 12 -3 19 0 19 9 0 8 5 14 10 14 6 0 10 11 10 25 0 16 6 25 15 25 9 0
15 9 15 25 0 17 8 29 25 37 14 6 25 17 25 24 0 7 17 18 37 25 21 6 43 15 49
20 6 5 14 6 17 2 4 -3 7 -1 7 5 0 7 5 12 11 12 7 0 17 8 24 17 7 10 26 18 41
19 16 1 28 7 27 13 -2 6 2 12 7 12 27 4 68 23 148 71 34 21 62 34 62 30 0 -4
4 -2 8 5 8 13 99 56 122 57 8 1 14 7 12 15 -2 8 3 11 12 8 8 -3 26 5 40 18 14
13 26 19 28 13 2 -6 30 -1 68 12 36 12 71 23 78 24 8 1 17 8 21 14 4 6 16 10
28 8 11 -3 33 2 48 10 15 8 30 12 34 10 3 -2 17 1 31 7 30 12 77 10 107 -5 16
-8 26 -7 44 6 13 9 36 16 51 16 16 0 28 5 28 13 0 7 17 21 38 31 20 10 49 25
64 32 14 8 33 14 42 14 9 0 16 6 16 14 0 10 14 14 53 14 49 1 54 3 96 49 24
26 40 42 36 34 -5 -8 2 -7 19 5 19 11 23 19 15 24 -8 5 -5 10 10 15 21 6 30
35 10 35 -20 0 -50 -21 -44 -31 8 -12 -82 -52 -97 -43 -6 4 -8 3 -5 -3 4 -6
-3 -11 -16 -12 -47 -1 -57 -5 -55 -20 2 -10 -8 -17 -32 -21 -50 -9 -120 -42
-113 -53 4 -6 0 -8 -10 -4 -21 8 -49 -2 -41 -14 3 -5 -2 -6 -10 -3 -9 3 -36
-6 -61 -21 -25 -14 -51 -25 -58 -22 -7 2 2 11 18 20 38 21 24 22 -15 2 -40
-21 -80 -36 -80 -30 0 10 103 56 114 52 15 -6 98 38 89 47 -4 4 1 4 11 0 12
-4 17 -4 13 2 -3 5 7 18 23 29 16 11 31 27 33 37 3 10 10 18 17 18 6 0 8 -5 4
-12 -4 -7 -3 -8 5 -4 6 4 9 11 6 15 -6 10 18 31 70 60 l40 23 -30 -26 c-16
-14 -38 -29 -47 -32 -32 -10 -19 -19 25 -18 28 0 76 17 148 52 94 44 106 53
107 76 0 24 -1 25 -26 8 -14 -9 -36 -27 -48 -38 -11 -12 -36 -29 -55 -38 -28
-14 -31 -14 -15 -1 11 8 23 15 26 15 4 0 7 7 7 15 0 8 -4 15 -9 15 -4 0 -8 -6
-8 -13 0 -8 -11 -20 -25 -27 -13 -7 -22 -17 -19 -21 2 -4 -1 -11 -7 -15 -8 -5
-9 -3 -4 6 5 8 3 11 -6 8 -8 -3 -13 -10 -12 -16 2 -6 -5 -10 -15 -10 -9 0 -26
-3 -37 -7 -31 -12 -8 8 50 44 28 17 43 31 35 31 -8 0 4 9 27 21 24 12 43 28
43 36 0 10 -6 13 -16 9 -14 -6 -15 -4 -4 9 10 12 15 13 21 4 6 -10 11 -10 22
-1 7 7 17 10 20 7 4 -3 5 -2 2 1 -2 4 3 13 11 21 16 16 15 36 -1 32 -36 -9
-105 -46 -98 -53 4 -5 0 -6 -9 -3 -19 7 -82 -15 -73 -25 3 -3 -16 -18 -42 -33
-26 -16 -57 -35 -68 -42 -19 -14 -19 -15 5 -8 21 5 22 4 7 -5 -9 -6 -22 -8
-27 -5 -5 3 -31 -6 -57 -22 -35 -20 -45 -23 -41 -11 6 14 2 15 -23 8 -37 -11
-37 -1 0 34 18 17 34 25 42 21 7 -5 10 -4 6 3 -4 5 21 33 55 60 76 60 131 118
105 109 -11 -4 -16 -3 -12 3 3 6 45 9 93 9 48 -1 75 -4 60 -6 -26 -4 -61 -33
-40 -33 16 0 66 23 73 34 9 12 71 -33 66 -48 -3 -7 1 -13 9 -13 12 0 14 129
14 863 l0 862 -37 -11 c-52 -15 -312 -18 -341 -4 -15 7 -26 8 -30 1 -11 -15
-70 -14 -82 2 -12 13 -11 30 6 129 5 27 20 52 50 84 25 25 44 39 44 30 1 -12
2 -12 13 1 15 19 53 37 94 45 29 6 209 -9 261 -22 16 -4 22 -1 22 11 0 10 -9
16 -22 17 -22 0 -22 1 -3 9 l20 8 -20 7 c-11 3 -28 11 -37 16 -10 5 -23 6 -31
3 -8 -3 -20 2 -27 11 -7 8 -19 15 -28 15 -8 0 -24 7 -34 17 -16 14 -18 15 -18
0 0 -22 -11 -26 -40 -15 -25 10 -25 10 13 24 25 9 44 10 55 4 16 -8 154 -50
166 -50 3 0 6 7 6 15 0 9 -17 19 -45 26 -25 6 -48 16 -51 21 -4 6 1 8 12 5 11
-3 34 -8 51 -12 l33 -7 0 564 0 563 -44 3 c-40 2 -44 1 -39 -18 7 -27 -14 -26
-38 2 -13 15 -19 17 -19 7 0 -8 5 -20 12 -27 9 -9 8 -12 -6 -12 -11 0 -14 -4
-10 -12 5 -7 10 -29 11 -49 3 -33 0 -39 -28 -53 -22 -11 -36 -13 -43 -6 -5 5
-7 10 -2 10 4 0 1 7 -8 15 -8 8 -22 15 -30 15 -22 0 -20 27 3 40 27 14 34 13
27 -5 -6 -17 19 -21 29 -5 7 12 25 4 25 -11 0 -5 -7 -9 -15 -9 -16 0 -20 -16
-7 -24 13 -8 38 44 26 52 -6 4 -13 15 -17 25 -7 18 -47 24 -47 7 0 -5 -5 -10
-11 -10 -20 0 -44 -33 -41 -57 2 -13 -2 -31 -8 -39 -9 -10 -9 -14 -1 -14 6 0
11 -7 11 -15 0 -18 -16 -20 -23 -2 -3 7 -6 5 -6 -5 -1 -19 -31 -26 -31 -7 0 6
-9 8 -21 4 -16 -5 -20 -3 -17 6 3 8 15 13 26 11 12 -2 22 1 22 7 0 17 -19 22
-40 11 -17 -9 -22 -7 -29 13 -11 28 -61 36 -61 10 0 -8 -5 -13 -12 -11 -19 7
-20 25 -1 32 10 3 34 12 53 20 34 14 34 15 8 15 l-27 1 25 27 c21 23 27 25 34
13 6 -8 8 -20 5 -27 -4 -13 32 -29 42 -19 4 3 -2 6 -11 6 -13 0 -17 6 -13 20
3 10 0 21 -6 23 -13 4 -2 37 13 37 5 0 10 -10 10 -22 0 -13 5 -30 11 -38 8
-13 9 -12 7 4 -2 10 3 21 10 23 6 3 12 -2 12 -11 0 -10 6 -13 18 -9 23 9 42
29 35 37 -3 3 -12 -2 -19 -12 -9 -12 -16 -14 -24 -6 -14 14 4 30 40 37 18 3
15 5 -12 6 -28 1 -38 -3 -38 -14 0 -8 -7 -15 -15 -15 -8 0 -15 7 -15 15 0 21
-37 19 -49 -2 -9 -17 -11 -17 -25 2 -9 12 -15 15 -16 7 0 -7 -4 -10 -10 -7 -5
3 -10 0 -10 -9 0 -8 5 -16 12 -18 7 -3 8 -10 3 -17 -6 -11 -10 -10 -17 3 -12
21 -26 21 -24 0 2 -23 -20 -29 -28 -7 -4 10 -2 19 3 21 16 5 13 29 -5 36 -8 3
-12 2 -9 -4 3 -6 3 -15 -1 -22 -5 -7 -11 -5 -21 8 -12 17 -30 19 -179 22 -127
3 -169 1 -181 -10 -12 -9 -15 -9 -9 0 5 9 -5 12 -39 12 -39 0 -48 -4 -52 -20
-7 -27 -35 -33 -162 -34 -97 -1 -111 1 -162 27 l-57 27 -691 0 -692 -1 -52
-29 c-65 -36 -162 -62 -202 -54 -44 10 -103 42 -117 64 -12 18 -24 20 -140 20
l-128 0 0 -280z m1840 170 c0 -7 7 -7 20 0 11 6 19 7 19 3 -1 -4 3 -21 9 -36
7 -16 12 -32 12 -36 0 -5 6 -14 14 -20 11 -9 13 -6 9 16 -3 24 -2 25 6 8 9
-19 10 -19 10 3 1 19 -3 22 -19 17 -23 -7 -28 17 -8 39 11 11 16 8 31 -16 9
-16 15 -34 11 -39 -3 -6 -3 -21 0 -35 l7 -25 19 23 c17 20 21 21 30 8 5 -8 9
-19 9 -25 0 -5 -3 -4 -6 3 -2 6 -9 12 -14 12 -4 0 -6 -7 -3 -15 4 -8 1 -15 -6
-15 -6 0 -8 -5 -5 -10 4 -6 10 -8 14 -5 11 6 3 -64 -9 -84 -6 -10 -10 -11 -10
-3 0 6 -5 12 -11 12 -6 0 -8 -7 -5 -16 3 -8 2 -12 -4 -9 -6 3 -10 -1 -10 -9 0
-19 -16 -21 -23 -3 -4 9 -7 9 -17 0 -11 -10 -11 -15 0 -28 7 -8 10 -18 7 -22
-4 -3 -12 6 -18 21 -12 25 -13 25 -31 9 -20 -18 -63 -29 -54 -14 3 5 -3 7 -13
4 -16 -4 -19 -1 -14 19 3 14 1 18 -4 11 -14 -19 -45 12 -47 46 0 17 -5 31 -9
31 -5 0 -7 6 -4 14 3 7 1 18 -4 23 -13 13 8 80 27 87 9 3 14 12 11 20 -8 19
43 32 55 14 8 -10 9 -9 5 4 -3 9 -3 19 0 22 10 10 23 7 23 -4z m-1018 -27 c18
-37 33 -39 59 -9 25 29 39 33 39 12 0 -8 7 -16 15 -20 22 -8 18 -26 -5 -26
-12 0 -35 -7 -52 -16 -21 -11 -42 -14 -67 -9 l-36 7 33 -34 c39 -41 40 -51 5
-37 -20 7 -34 6 -60 -6 -43 -21 -60 -16 -35 10 18 19 18 21 0 53 -22 40 -23
56 -3 72 12 10 54 24 87 29 4 1 13 -11 20 -26z m662 11 c10 -27 7 -32 -26 -43
-17 -6 -28 -14 -25 -18 4 -3 2 -12 -4 -20 -7 -8 -8 -13 -1 -13 5 0 13 8 17 18
6 16 7 16 21 -2 16 -23 19 -50 4 -41 -6 4 -8 11 -5 16 4 5 1 9 -6 9 -6 0 -9
-8 -6 -20 6 -22 -2 -26 -21 -10 -7 5 -5 2 3 -7 12 -14 12 -18 -3 -30 -16 -12
-16 -13 1 -7 18 6 21 -1 17 -43 -1 -13 3 -23 9 -23 5 0 8 9 6 21 -3 13 0 19 8
16 7 -2 11 -14 10 -26 -2 -12 1 -20 6 -17 5 3 15 -2 22 -11 11 -13 11 -17 2
-20 -7 -3 -13 -12 -13 -21 -1 -16 -1 -16 -10 0 -6 10 -18 14 -30 11 -12 -3
-20 0 -20 6 0 7 -4 10 -9 7 -12 -8 -34 21 -26 34 3 5 -1 17 -9 26 -19 18 -21
64 -3 64 8 1 7 4 -3 13 -15 12 -22 67 -8 67 4 0 12 -8 17 -17 8 -14 9 -8 4 20
-4 28 -2 37 8 37 8 0 22 9 32 20 20 24 33 25 41 4z m866 -271 c0 5 13 -1 28
-12 23 -16 32 -18 42 -8 10 10 12 8 7 -10 -3 -13 -1 -25 4 -28 11 -7 0 -36
-23 -58 -19 -19 -24 -37 -9 -37 11 0 38 40 42 65 2 10 10 20 18 23 9 3 11 0 5
-9 -15 -25 -11 -49 9 -55 15 -5 17 -8 6 -15 -7 -4 -10 -11 -6 -15 4 -4 12 -3
19 4 8 8 8 15 -2 27 -10 12 -10 15 4 15 8 0 18 -11 22 -25 3 -14 10 -25 14
-25 4 0 10 -10 14 -22 4 -18 8 -20 18 -10 17 17 28 15 28 -7 0 -14 -5 -18 -20
-14 -14 4 -20 0 -20 -11 0 -15 3 -15 34 -2 30 13 36 13 47 0 10 -12 9 -13 -7
-8 -18 7 -18 7 0 -15 15 -16 17 -24 8 -33 -7 -7 -12 -9 -12 -4 0 4 -10 -4 -22
-18 -16 -18 -27 -23 -37 -17 -11 7 -11 13 0 32 7 15 14 19 17 11 7 -21 19 -13
15 11 -3 16 -11 22 -31 22 -15 0 -32 -3 -38 -7 -11 -8 -15 7 -14 60 0 34 -8
40 -28 20 -10 -10 -14 -8 -18 10 -8 28 -25 28 -57 -2 -14 -13 -28 -21 -31 -18
-3 3 -6 1 -6 -5 0 -5 12 -16 28 -24 15 -8 30 -18 34 -24 11 -15 10 -27 -2 -20
-5 3 -19 8 -29 10 -14 3 -18 -1 -14 -12 5 -12 7 -12 14 -1 7 10 9 9 9 -5 0
-10 -10 -22 -22 -27 -13 -5 -16 -9 -8 -9 11 -1 11 -4 2 -13 -18 -18 -14 -26
13 -23 14 2 25 -1 25 -6 0 -5 -9 -9 -21 -9 -11 0 -17 -4 -14 -10 9 -15 -2 -12
-19 6 -15 14 -16 14 -17 -3 0 -13 -3 -12 -10 7 -7 16 -7 32 0 47 7 16 6 25 -5
34 -12 10 -12 13 3 25 17 13 17 13 -1 14 -15 0 -16 3 -6 15 10 12 10 15 0 15
-7 0 -10 7 -6 15 3 8 0 15 -5 15 -7 0 -5 9 4 23 14 22 14 25 -5 41 -16 14 -19
24 -13 54 10 53 25 78 36 61 5 -8 9 -10 9 -6z m-1904 -52 c-16 -18 -16 -20 2
-32 25 -18 33 -54 20 -90 -11 -32 -38 -38 -58 -14 -16 19 -30 19 -30 1 0 -7
-7 -19 -15 -26 -8 -7 -15 -21 -15 -32 0 -14 -6 -19 -21 -16 -58 8 -44 76 19
100 l36 13 -23 22 c-20 18 -21 24 -10 45 18 34 40 47 78 48 33 0 33 -1 17 -19z
m1684 10 c0 -5 -6 -11 -12 -14 -7 -3 -1 -10 15 -16 16 -6 25 -15 22 -21 -3 -5
-1 -10 6 -10 8 0 9 -11 5 -32 -4 -21 -3 -28 3 -19 5 8 11 9 15 3 3 -6 -8 -15
-24 -21 -17 -6 -30 -6 -30 -1 0 5 -8 6 -17 3 -16 -6 -17 -5 -3 13 8 10 22 25
30 32 8 8 9 11 2 7 -14 -7 -42 17 -42 37 0 10 -2 11 -8 0 -5 -8 -16 -10 -28
-6 -10 4 -16 4 -12 -1 4 -4 3 -16 -3 -26 -7 -15 -6 -17 6 -13 8 3 12 10 9 15
-3 5 0 9 5 9 6 0 11 -4 11 -10 0 -5 3 -9 8 -9 29 5 36 -2 19 -18 -15 -16 -19
-16 -27 -3 -7 12 -12 12 -22 2 -9 -9 -9 -12 0 -12 7 0 12 -4 12 -10 0 -5 -7
-6 -17 -3 -11 4 -14 3 -9 -5 4 -7 3 -12 -2 -12 -5 0 -7 -14 -4 -31 3 -23 8
-29 21 -24 10 4 8 -2 -7 -15 -12 -12 -20 -26 -16 -32 4 -6 9 -5 15 3 5 8 9 10
10 4 0 -5 4 -1 8 10 4 11 19 22 32 25 13 3 29 16 35 28 6 12 14 19 17 15 4 -3
7 -1 7 5 0 7 8 12 18 12 10 0 23 5 30 12 9 9 12 9 12 0 0 -6 -9 -16 -20 -22
-11 -6 -20 -19 -20 -30 0 -13 -5 -18 -15 -14 -10 4 -15 0 -15 -11 0 -26 -21
-41 -67 -48 -30 -5 -46 -3 -56 8 -8 8 -17 11 -20 8 -3 -3 1 -13 10 -21 10 -11
12 -17 4 -20 -7 -2 -8 -9 -2 -21 8 -14 6 -17 -11 -17 -12 1 -22 -5 -24 -12 -1
-7 0 -8 3 -2 9 20 20 10 19 -19 -1 -15 -7 -34 -15 -42 -13 -11 -14 -11 -8 4 3
9 2 19 -3 22 -6 4 -10 1 -10 -4 0 -6 -4 -11 -9 -11 -4 0 -6 11 -4 24 3 13 -1
34 -8 47 -11 21 -11 23 3 11 22 -18 29 -2 18 39 -6 21 -6 37 0 43 7 7 10 4 10
-8 0 -9 5 -14 10 -11 7 4 6 13 -1 26 -6 13 -8 37 -3 62 4 23 8 45 8 49 1 3 14
23 30 43 34 42 106 80 106 56z m-654 -70 c19 16 19 -3 -2 -47 -18 -38 -39 -47
-28 -11 6 20 4 19 -15 -5 -12 -15 -23 -38 -23 -50 -1 -13 -5 -28 -9 -33 -4 -6
-6 -20 -4 -30 2 -11 4 -22 4 -25 1 -2 6 1 12 7 6 6 18 9 25 6 8 -3 14 0 14 6
0 10 -14 15 -33 12 -14 -3 -3 32 12 37 8 3 11 0 8 -5 -3 -5 3 -15 15 -22 11
-7 17 -8 13 -2 -4 7 3 11 17 11 19 0 20 -2 8 -11 -11 -8 -5 -9 25 -5 35 4 38
3 23 -8 -10 -7 -18 -20 -18 -29 0 -9 -4 -19 -10 -22 -5 -3 -10 3 -10 14 0 11
-5 23 -12 27 -7 5 -9 2 -5 -9 6 -17 -22 -31 -75 -36 -5 -1 -8 -6 -8 -12 0 -5
4 -7 10 -4 5 3 18 1 27 -5 16 -11 16 -11 1 -6 -10 3 -20 1 -23 -4 -4 -6 1 -10
9 -10 9 0 16 -4 16 -10 0 -5 -7 -7 -15 -4 -8 4 -15 2 -15 -4 0 -13 24 -10 44
7 11 9 16 10 16 2 0 -6 -4 -11 -9 -11 -5 0 -8 -15 -7 -32 1 -26 -3 -33 -16
-32 -10 1 -18 -2 -18 -6 0 -5 -11 -3 -24 3 -19 9 -22 15 -14 25 6 7 13 25 14
40 3 22 -1 20 -24 -18 l-27 -45 -3 33 c-2 18 3 45 11 61 13 25 12 28 -2 27
-17 -1 -18 4 -6 43 6 20 4 23 -9 18 -21 -8 -21 2 1 18 15 11 15 15 4 29 -8 9
-11 19 -8 23 4 3 2 12 -5 20 -6 7 -8 17 -4 20 4 4 12 1 17 -7 7 -11 9 -6 4 16
-5 25 -2 33 12 38 10 4 19 2 21 -3 6 -18 23 -12 45 15 18 23 21 24 29 9 8 -13
13 -14 24 -4z m-211 -31 c-3 -24 -1 -27 18 -22 21 5 21 4 -3 -16 -23 -18 -26
-19 -32 -4 -6 14 -7 13 -6 -3 2 -11 -1 -25 -4 -31 -4 -6 -1 -11 7 -11 8 0 15
4 15 9 0 5 5 6 11 3 7 -5 3 -15 -10 -29 -12 -12 -21 -26 -21 -32 0 -5 -7 -21
-14 -36 -14 -26 -9 -38 8 -21 13 13 35 11 29 -3 -3 -8 -9 -14 -14 -14 -5 0 -9
-6 -9 -13 0 -11 -34 -47 -45 -47 -2 0 -2 8 2 18 3 9 3 14 -1 10 -4 -3 -8 -12
-10 -20 -3 -26 -16 -35 -40 -31 -18 4 -26 0 -31 -16 -3 -11 -3 -26 1 -33 4 -7
4 -10 -1 -6 -4 4 -14 3 -22 -3 -10 -9 -13 -6 -14 17 0 16 -3 23 -6 17 -8 -21
-21 -15 -20 10 0 12 -2 29 -4 37 -2 8 2 14 9 13 6 -2 12 2 12 7 0 17 -22 11
-40 -10 -18 -20 -18 -20 -39 24 -12 24 -29 50 -37 57 -12 9 -12 15 -2 27 11
13 11 14 -1 8 -10 -7 -12 -3 -6 13 4 14 3 21 -5 19 -7 -2 -15 3 -17 10 -3 8 1
10 14 5 17 -6 17 -5 2 13 -27 32 -28 50 -6 70 40 33 109 21 99 -19 -3 -12 -1
-18 5 -14 6 4 8 -12 5 -45 -3 -37 -2 -49 7 -44 7 5 11 -2 11 -18 0 -17 6 -26
16 -26 9 0 12 5 8 12 -5 7 -3 8 5 4 9 -6 9 -12 -3 -25 -17 -19 -21 -32 -8 -30
21 4 32 -3 32 -18 0 -14 2 -15 13 -4 10 10 9 15 -5 25 -25 18 -22 26 7 26 14
0 26 3 26 8 4 23 9 52 15 87 3 22 11 43 18 47 8 6 7 8 -2 8 -10 0 -10 4 2 16
9 8 16 20 16 25 0 16 18 10 24 -8 3 -12 5 -9 4 7 0 37 0 39 21 33 14 -4 18
-12 16 -33z m540 19 c5 -14 12 -18 23 -14 27 11 34 11 38 0 2 -6 -5 -16 -16
-23 -17 -10 -23 -10 -36 3 -20 19 -20 19 -45 -6 -20 -20 -22 -20 -40 -3 -10 9
-19 12 -19 6 0 -6 6 -13 13 -15 7 -3 5 -6 -5 -6 -11 -1 -18 6 -18 18 0 11 -4
23 -10 26 -20 12 -5 -40 15 -53 19 -12 19 -13 -3 -7 -12 4 -22 3 -21 -2 4 -21
-2 -33 -16 -33 -14 0 -14 -3 0 -24 12 -18 13 -26 4 -32 -8 -5 -9 -3 -4 6 5 9
4 11 -3 6 -18 -11 -14 -26 6 -26 14 0 15 -2 2 -10 -13 -8 -12 -10 3 -10 14 0
16 -5 11 -26 -5 -21 -3 -25 12 -23 11 1 27 -1 36 -5 18 -8 41 7 50 34 6 18
-18 44 -32 35 -13 -8 -13 1 0 26 9 16 20 19 65 17 41 -2 55 -7 55 -18 0 -13 2
-13 9 -1 7 10 9 7 8 -11 -1 -16 -7 -24 -15 -20 -7 2 -12 1 -11 -4 4 -26 -2
-43 -15 -38 -18 7 -32 -16 -16 -26 9 -5 9 -9 1 -14 -6 -4 -11 -2 -11 3 0 6 -5
11 -11 11 -5 0 -8 -4 -4 -9 3 -5 0 -13 -6 -17 -8 -5 -8 -8 1 -14 6 -4 -3 -7
-20 -8 -17 0 -28 3 -26 7 3 4 1 13 -5 21 -6 11 -9 12 -9 2 0 -7 -4 -10 -10 -7
-5 3 -10 -3 -10 -15 0 -19 -2 -20 -15 -6 -8 8 -15 22 -15 30 0 9 -4 16 -10 16
-5 0 -10 -5 -10 -12 0 -17 -36 24 -44 50 -6 18 -4 21 11 16 17 -5 17 -5 1 9
-10 8 -18 19 -18 25 0 6 -6 13 -12 15 -9 4 -10 8 -2 14 17 13 23 40 11 52 -8
8 -8 11 1 11 7 0 12 3 11 8 -1 4 2 18 6 31 8 23 9 23 23 5 12 -15 14 -16 9 -2
-6 18 9 34 33 37 57 6 71 8 77 14 12 12 22 7 28 -14z m894 -460 c-11 -7 -11
-9 3 -9 9 0 19 6 21 13 3 7 6 5 6 -5 1 -10 5 -18 10 -18 5 0 7 -9 4 -20 -3
-11 0 -20 6 -20 6 0 11 -12 11 -26 0 -14 4 -23 10 -19 6 3 10 1 10 -5 0 -6 4
-8 10 -5 6 4 7 -1 3 -11 -4 -11 -3 -15 5 -11 7 5 8 -3 0 -29 -5 -20 -7 -45 -5
-55 3 -11 0 -19 -6 -20 -7 0 -1 -5 12 -10 20 -8 21 -12 11 -25 -10 -12 -11
-17 -1 -27 10 -9 11 -8 5 8 -7 17 -6 18 8 5 15 -14 15 -16 -3 -24 -23 -11 -26
-28 -2 -19 10 4 14 2 10 -4 -4 -6 -18 -13 -32 -15 -21 -4 -23 -3 -14 9 10 11
8 12 -14 4 -18 -7 -27 -7 -31 2 -3 8 -7 9 -13 1 -12 -15 -43 -25 -43 -14 0 6
-11 10 -24 10 -40 0 -85 20 -79 36 3 8 0 14 -6 14 -6 0 -11 -5 -11 -11 0 -6
-7 -4 -15 5 -9 8 -22 13 -30 10 -10 -4 -15 0 -15 11 0 11 -5 15 -15 11 -10 -4
-15 1 -15 15 0 17 -3 18 -20 9 -28 -15 -25 -24 18 -44 73 -35 168 -106 252
-188 l85 -83 -148 -3 -149 -3 -78 63 c-83 68 -110 102 -110 141 0 13 -7 30
-15 37 -12 10 -13 15 -4 21 8 5 5 10 -10 18 -11 7 -21 16 -21 22 0 6 5 7 12 3
22 -14 131 -15 140 -1 12 18 10 27 -7 27 -8 0 -14 3 -14 8 3 20 -2 31 -13 27
-9 -4 -13 7 -14 35 -1 21 1 39 5 38 22 -2 27 7 26 45 -1 39 7 56 28 57 5 0 5
-6 0 -12 -15 -25 -14 -58 2 -58 8 0 15 6 15 14 0 8 5 18 12 22 7 5 8 3 3 -7
-5 -8 0 -6 12 4 20 17 128 41 144 32 15 -10 59 15 59 33 0 27 12 35 23 16 6
-11 5 -19 -4 -25z m361 -639 c0 -20 -7 -20 -1380 -20 -1373 0 -1380 0 -1380
20 0 20 7 20 1380 20 1373 0 1380 0 1380 -20z m-2315 -330 l0 -105 -30 0 -30
0 0 78 c0 67 -2 77 -18 77 -20 0 -32 23 -23 46 4 11 18 14 53 12 l48 -3 0
-105z m162 95 c31 -22 47 -85 33 -135 -25 -92 -130 -95 -160 -4 -33 99 52 192
127 139z m204 -14 c25 -25 29 -37 29 -81 0 -44 -4 -56 -29 -81 -31 -31 -55
-36 -94 -18 -31 14 -47 48 -47 100 0 99 78 143 141 80z m200 9 c5 -8 15 -31
23 -50 l14 -35 12 48 c9 36 18 49 35 53 54 13 59 5 69 -94 9 -107 6 -122 -29
-122 -20 0 -25 5 -25 24 0 13 -3 38 -7 56 l-6 33 -16 -54 c-22 -73 -47 -74
-71 -4 l-17 50 -8 -40 c-10 -62 -13 -67 -37 -63 -22 3 -23 6 -19 103 2 55 5
104 8 108 8 13 65 3 74 -13z m309 -10 c0 -27 -3 -30 -30 -30 -20 0 -30 -5 -30
-15 0 -8 9 -15 20 -15 13 0 20 -7 20 -20 0 -13 -7 -20 -20 -20 -11 0 -20 -7
-20 -15 0 -10 10 -15 30 -15 27 0 30 -3 30 -30 l0 -30 -60 0 -60 0 0 110 0
110 60 0 60 0 0 -30z m88 -52 c3 -76 4 -78 28 -78 22 0 25 -4 22 -27 -3 -25
-7 -28 -46 -31 -65 -5 -72 6 -72 113 0 50 3 95 7 99 4 4 19 6 33 4 24 -3 25
-6 28 -80z m132 42 c0 -33 3 -40 19 -40 16 0 20 8 23 38 3 34 6 37 33 37 l30
0 0 -105 0 -105 -30 0 c-27 0 -30 3 -33 38 -2 28 -8 37 -22 37 -14 0 -20 -9
-22 -37 -3 -33 -6 -38 -28 -38 -25 0 -25 1 -28 94 -1 52 -1 100 2 108 3 7 17
13 31 13 23 0 25 -4 25 -40z m291 11 c25 -25 29 -37 29 -81 0 -44 -4 -56 -29
-81 -38 -37 -88 -39 -128 -5 -25 22 -28 31 -28 86 0 55 3 64 28 86 40 34 90
32 128 -5z m163 19 c39 -14 52 -51 33 -88 -13 -28 -13 -33 4 -61 18 -30 18
-31 -4 -46 -30 -21 -35 -20 -55 22 l-17 36 -5 -34 c-4 -28 -10 -35 -32 -37
l-28 -3 0 110 0 111 39 0 c22 0 51 -4 65 -10z m191 -20 c0 -20 -6 -26 -27 -28
-32 -4 -39 -32 -8 -32 13 0 20 -7 20 -20 0 -13 -7 -20 -20 -20 -31 0 -24 -28
8 -32 21 -2 27 -8 27 -28 0 -23 -4 -25 -57 -28 l-58 -3 0 111 0 111 58 -3 c53
-3 57 -5 57 -28z m152 22 c7 -4 10 -17 6 -31 -4 -18 -11 -22 -30 -18 -37 7
-36 -9 2 -32 30 -17 35 -26 35 -56 0 -45 -29 -75 -73 -75 -48 0 -72 20 -63 54
5 22 9 25 26 16 10 -5 23 -10 29 -10 19 0 12 16 -14 30 -45 24 -50 94 -8 119
21 12 73 14 90 3z m-1154 -372 c5 -4 6 -17 2 -29 -5 -16 -12 -20 -29 -15 -30
7 -48 -16 -44 -58 3 -28 7 -33 33 -36 17 -2 36 -10 42 -19 19 -25 -3 -43 -51
-43 -55 0 -86 31 -93 92 -8 73 51 136 112 121 11 -3 24 -9 28 -13z m796 4 c2
-2 1 -14 -3 -27 -5 -20 -11 -23 -31 -19 -34 6 -32 -10 5 -31 35 -21 47 -56 29
-89 -16 -32 -28 -38 -71 -38 -43 0 -68 21 -61 50 6 23 4 23 37 10 37 -14 43 6
8 24 -61 31 -56 105 8 129 14 5 70 -1 79 -9z m-1127 -11 c21 -19 24 -62 4 -88
-12 -17 -12 -23 7 -49 20 -28 20 -29 2 -42 -30 -22 -43 -17 -64 24 l-20 37 -1
-37 c0 -35 -2 -38 -30 -38 l-30 0 0 105 0 105 57 0 c38 0 62 -5 75 -17z m168
-8 c0 -21 -5 -25 -30 -25 -20 0 -30 -5 -30 -15 0 -8 9 -15 20 -15 15 0 20 -7
20 -25 0 -18 -5 -25 -20 -25 -11 0 -20 -7 -20 -15 0 -10 10 -15 30 -15 25 0
30 -4 30 -25 0 -24 -3 -25 -60 -25 l-60 0 0 105 0 105 60 0 c57 0 60 -1 60
-25z m320 0 c0 -21 -5 -25 -30 -25 -20 0 -30 -5 -30 -15 0 -8 9 -15 20 -15 15
0 20 -7 20 -25 0 -18 -5 -25 -20 -25 -11 0 -20 -7 -20 -15 0 -10 10 -15 30
-15 25 0 30 -4 30 -25 0 -24 -3 -25 -60 -25 l-60 0 0 105 0 105 60 0 c57 0 60
-1 60 -25z m137 9 c4 -10 -1 -22 -10 -29 -23 -17 -24 -115 -2 -115 9 0 15 -9
15 -25 0 -24 -3 -25 -60 -25 -57 0 -60 1 -60 25 0 16 6 25 15 25 12 0 15 13
15 55 0 42 -3 55 -15 55 -9 0 -15 9 -15 25 0 24 3 25 55 25 42 0 57 -4 62 -16z
m153 -9 c0 -18 -5 -25 -20 -25 -18 0 -20 -7 -20 -80 l0 -80 -30 0 -30 0 0 80
c0 73 -2 80 -20 80 -15 0 -20 7 -20 25 0 24 2 25 70 25 68 0 70 -1 70 -25z
m150 20 c0 -3 11 -47 25 -99 14 -52 25 -97 25 -100 0 -3 -14 -6 -30 -6 -24 0
-33 6 -40 26 -13 33 -53 30 -58 -3 -3 -18 -10 -23 -34 -23 -20 0 -29 4 -26 13
3 6 15 54 28 105 l24 92 43 0 c24 0 43 -2 43 -5z m-994 -418 c7 -32 14 -60 17
-63 2 -3 8 17 11 43 12 79 14 83 52 83 29 0 34 -3 31 -17 -3 -10 -15 -57 -28
-105 -23 -92 -26 -95 -83 -89 -27 2 -25 -1 -52 98 -31 115 -31 115 9 111 31
-3 33 -6 43 -61z m254 33 c0 -27 -3 -30 -30 -30 -20 0 -30 -5 -30 -15 0 -8 9
-15 20 -15 13 0 20 -7 20 -20 0 -13 -7 -20 -20 -20 -11 0 -20 -7 -20 -15 0
-10 10 -15 31 -15 27 0 30 -3 27 -27 -3 -27 -5 -28 -58 -28 l-55 0 -3 108 -3
107 61 0 60 0 0 -30z m175 19 c4 -5 4 -20 1 -32 -4 -18 -12 -22 -43 -22 -36 0
-38 -2 -41 -33 -6 -56 43 -90 50 -34 2 19 9 27 23 27 17 0 20 -8 23 -51 3 -46
1 -52 -20 -58 -68 -18 -132 17 -144 79 -8 47 12 102 44 120 32 17 98 20 107 4z
m195 -96 c23 -87 25 -103 12 -108 -23 -9 -49 4 -55 25 -6 24 -57 29 -57 5 0
-19 -32 -36 -49 -26 -12 8 -11 17 30 174 10 37 11 38 51 35 l42 -3 26 -102z
m130 57 l25 -45 3 48 c3 42 5 47 28 47 24 0 24 0 24 -105 l0 -105 -30 0 c-25
0 -33 7 -52 43 l-23 42 -5 -45 c-4 -37 -9 -45 -25 -45 -19 0 -20 8 -23 108
l-3 108 28 -3 c21 -2 34 -14 53 -48z m249 13 c41 -159 43 -166 29 -174 -20
-14 -42 -6 -53 19 -12 28 -51 30 -60 3 -7 -22 -28 -33 -49 -25 -12 5 -10 21
10 97 14 51 27 98 29 105 3 7 21 12 44 12 38 0 41 -2 50 -37z m186 7 c0 -21
-4 -25 -27 -23 -37 2 -35 -6 7 -40 42 -34 46 -67 10 -102 -40 -41 -115 -28
-115 20 0 26 15 41 25 25 8 -13 45 -13 45 0 0 6 -5 10 -10 10 -21 0 -60 49
-60 75 0 41 34 67 83 63 37 -3 42 -6 42 -28z m785 -405 l0 -25 -1380 0 c-1373
0 -1380 0 -1380 20 0 20 8 20 1378 23 757 1 1378 3 1380 5 1 1 2 -9 2 -23z
m-2625 -163 c-17 -12 -18 -42 0 -36 8 3 15 12 15 20 0 8 2 14 4 14 2 0 11 3
20 6 12 5 14 0 11 -27 -2 -17 -9 -37 -15 -43 -8 -8 -9 -6 -5 7 9 23 -13 22
-43 -1 l-24 -18 39 -2 c52 -3 83 -6 83 -8 0 -2 -8 -10 -17 -20 -13 -13 -14
-16 -3 -12 8 3 30 -1 49 -8 18 -8 37 -14 42 -14 11 0 7 23 -5 32 -5 3 6 11 25
16 l34 9 -35 10 c-33 9 -34 10 -11 17 13 5 26 4 30 0 9 -13 71 -14 68 -1 -1 5
12 14 29 18 17 5 37 16 44 24 19 23 49 19 43 -6 -3 -11 -11 -18 -19 -15 -7 3
-16 0 -20 -6 -5 -7 -2 -8 7 -4 8 4 5 0 -6 -9 -11 -9 -32 -19 -47 -22 -14 -3
-28 -13 -31 -23 -4 -17 -2 -17 28 -4 32 13 33 13 38 -14 3 -15 0 -30 -6 -34
-7 -5 -3 -8 10 -8 12 0 24 6 26 13 3 7 6 6 6 -5 1 -11 9 -16 24 -16 44 3 77
-2 77 -11 0 -17 -103 -49 -127 -40 -13 5 -23 6 -23 3 0 -14 49 -19 94 -9 28 6
58 11 66 11 24 -1 23 -20 -2 -28 -20 -5 -21 -6 -3 -7 11 -1 28 -7 37 -15 14
-10 15 -15 5 -25 -10 -11 -5 -12 23 -6 19 4 39 11 44 16 6 5 16 9 23 9 11 0
11 -5 3 -20 -12 -22 -74 -37 -93 -23 -6 6 -21 13 -32 15 -11 3 -28 9 -39 13
-18 8 -18 7 -1 -18 18 -29 9 -35 -25 -17 -16 9 -18 8 -13 -6 8 -20 -8 -13 -46
20 -18 16 -25 18 -29 8 -3 -10 -16 -2 -43 24 -35 34 -41 36 -64 26 -37 -17
-41 -15 -19 9 18 20 18 21 -1 35 -10 8 -30 13 -44 13 -17 -1 -20 -3 -8 -6 9
-2 17 -8 17 -13 0 -5 7 -7 16 -3 14 5 15 3 5 -15 -6 -11 -16 -22 -23 -24 -11
-4 -21 3 -83 61 -16 16 -40 31 -51 34 l-22 5 21 -36 c18 -30 18 -35 5 -30 -16
6 -31 -12 -33 -38 0 -6 -6 -19 -14 -28 -9 -11 -10 -16 -2 -16 6 0 14 7 18 16
3 8 12 13 19 10 7 -3 20 2 29 10 8 9 15 11 15 5 0 -6 7 -11 15 -11 18 0 20 16
3 23 -9 3 -7 7 5 12 12 5 22 2 32 -11 7 -10 11 -22 9 -25 -2 -4 10 -12 26 -19
35 -15 40 -40 8 -39 -22 0 -22 1 -3 10 15 7 12 8 -13 3 -19 -3 -39 -1 -47 6
-8 6 -19 9 -25 5 -6 -3 -10 3 -10 15 0 12 -4 19 -10 15 -5 -3 -7 -12 -4 -19 3
-8 -2 -16 -13 -19 -12 -3 -10 -5 7 -5 42 0 140 -45 140 -64 0 -4 -8 -5 -17 -2
-10 3 -6 -2 9 -11 15 -8 35 -30 44 -48 9 -17 20 -34 23 -37 3 -3 11 -15 18
-26 11 -19 10 -21 -8 -17 -12 4 -18 11 -15 20 3 8 1 11 -4 8 -6 -3 -10 0 -10
7 0 10 -3 9 -10 -2 -5 -9 -5 -19 2 -27 18 -22 2 -14 -18 9 -10 12 -13 18 -6
14 16 -9 16 26 0 42 -18 18 -27 14 -22 -10 4 -16 1 -14 -9 7 -7 17 -16 29 -20
28 -3 -1 -24 14 -47 34 -30 27 -37 39 -29 49 8 10 0 12 -42 8 -30 -2 -58 1
-66 7 -9 8 -13 8 -13 0 0 -6 16 -21 35 -33 33 -22 51 -46 41 -56 -13 -13 -119
87 -111 105 3 7 8 20 11 28 4 10 0 15 -14 15 -29 0 -38 21 -16 37 18 13 17 14
-9 39 -16 15 -28 20 -26 13 3 -28 -1 -36 -26 -47 -33 -15 -35 -15 -35 4 0 16
51 64 81 76 13 5 28 -1 48 -18 27 -22 29 -23 24 -4 -3 11 -9 20 -14 20 -5 0
-9 6 -9 14 0 8 -15 17 -35 20 -38 7 -47 2 -78 -46 -10 -16 -22 -28 -27 -28
-19 0 -10 22 21 51 17 16 27 29 23 30 -23 2 36 18 67 18 20 1 41 7 47 14 8 10
6 13 -11 12 -26 0 -30 18 -4 20 28 2 40 21 14 22 -12 1 -33 5 -47 9 -24 7 -23
8 10 14 49 10 107 11 95 2z m1557 1 c103 -3 185 -10 182 -15 -3 -4 -1 -8 5 -8
5 0 24 -24 42 -52 40 -66 50 -155 25 -237 -19 -64 -18 -61 -7 -61 32 0 101
171 107 264 2 33 6 61 9 64 3 3 22 8 42 12 l38 7 -45 8 c-40 8 -42 10 -20 16
31 9 157 11 188 3 16 -5 22 -14 22 -35 0 -34 -14 -44 -59 -40 -30 2 -33 0 -26
-16 33 -74 3 -205 -62 -271 -24 -23 -43 -45 -43 -49 0 -18 -61 -54 -102 -59
-26 -4 -53 -13 -59 -20 -6 -8 -21 -14 -32 -14 -11 0 -17 -3 -14 -6 4 -4 -3
-15 -15 -25 -11 -11 -18 -19 -14 -19 4 0 4 -6 -1 -12 -4 -7 -6 -21 -5 -30 2
-10 -1 -18 -6 -18 -6 0 -12 -10 -16 -22 -26 -102 -261 -187 -354 -128 -18 11
-31 24 -28 29 3 5 31 26 62 46 30 20 54 39 52 41 -7 6 -89 -22 -91 -32 -6 -31
-128 -83 -218 -91 -49 -5 -61 -2 -111 26 -78 44 -150 123 -178 196 -20 54 -22
72 -17 185 5 109 10 136 39 215 18 50 41 105 51 123 l18 32 227 0 c125 0 311
-3 414 -7z m-1855 -1067 c-3 -8 6 -27 21 -41 22 -22 27 -36 27 -76 0 -66 -13
-77 -64 -54 -23 10 -43 26 -47 37 -9 31 6 98 29 123 25 26 42 32 34 11z"/>
<path d="M1863 4336 c-5 -9 -21 -17 -36 -18 -18 -2 -30 -11 -38 -30 -6 -15
-15 -25 -20 -23 -4 3 -7 -4 -6 -15 1 -21 17 -28 17 -7 0 8 3 8 9 -2 7 -10 5
-18 -5 -25 -10 -8 -11 -15 -3 -26 9 -13 10 -12 5 3 -6 19 1 21 23 8 7 -5 10
-14 7 -20 -4 -6 -2 -11 3 -11 17 0 13 -40 -4 -46 -29 -11 -15 -21 21 -15 24 4
42 15 52 31 l16 25 -27 -24 c-15 -14 -29 -22 -32 -19 -7 7 43 56 65 63 25 8
32 56 12 78 -16 18 -17 18 -34 -3 -14 -17 -18 -19 -18 -6 0 9 -8 16 -17 16
-16 1 -16 2 1 11 14 9 21 8 28 -2 5 -9 6 1 2 26 -8 48 -10 51 -21 31z"/>
<path d="M3359 936 c-1 -3 -2 -12 -3 -18 -1 -7 -8 -12 -15 -10 -8 2 -11 -3 -8
-12 7 -18 -24 -30 -53 -21 -13 4 -20 2 -20 -7 0 -16 -58 -43 -83 -39 -15 2
-18 -2 -12 -21 4 -14 3 -18 -3 -10 -12 17 -73 -13 -66 -33 8 -20 -43 -52 -59
-36 -16 16 -34 13 -39 -7 -6 -21 -100 -45 -137 -35 -11 3 -21 1 -21 -4 0 -6
-28 -9 -65 -7 -54 3 -69 0 -85 -16 -13 -13 -36 -19 -82 -22 -44 -2 -69 -9 -83
-22 -33 -30 -64 -49 -88 -51 -38 -4 -40 -5 -35 -11 10 -9 -35 -51 -79 -74 -23
-11 -44 -28 -47 -36 -3 -8 -16 -14 -30 -14 -14 0 -28 -4 -31 -10 -6 -10 -102
-60 -113 -59 -21 3 -32 -2 -26 -13 5 -8 0 -9 -14 -6 -15 4 -22 2 -22 -8 0 -7
-6 -11 -14 -8 -9 3 -21 -6 -32 -25 -9 -16 -29 -35 -43 -43 -14 -7 -29 -18 -33
-25 -5 -6 -18 -9 -30 -5 -21 5 -22 4 -9 -11 12 -15 11 -17 -4 -17 -10 0 -27
-7 -37 -16 -13 -13 -21 -14 -31 -5 -11 9 -17 8 -28 -5 -7 -9 -22 -14 -36 -11
-21 4 -66 -36 -157 -141 l-19 -22 46 0 c29 0 52 6 62 17 14 14 20 14 37 4 18
-11 20 -11 14 4 -4 13 -2 16 9 11 9 -3 15 0 15 9 0 8 6 15 14 15 8 0 21 6 28
13 22 21 88 49 104 43 8 -3 14 1 14 10 0 8 5 12 10 9 6 -3 43 17 83 44 40 28
78 51 84 51 6 0 13 7 17 15 6 16 64 55 81 55 6 -1 -10 -19 -35 -41 -64 -57
-14 -36 75 31 38 29 85 59 105 68 19 9 42 21 50 28 8 6 35 22 60 35 25 13 51
29 58 36 7 7 28 15 47 19 20 3 35 12 35 20 0 8 6 14 13 14 8 0 7 3 -2 9 -12 8
-8 11 15 17 16 4 31 10 34 14 3 4 32 20 65 35 132 60 175 66 175 22 0 -26 -26
-67 -43 -67 -13 0 -57 -48 -57 -63 0 -5 -6 -4 -14 2 -12 10 -16 8 -22 -11 -4
-13 -7 -26 -6 -29 0 -3 -10 -4 -23 -1 -18 3 -25 0 -25 -11 0 -9 -14 -25 -31
-37 -20 -15 -28 -28 -24 -38 4 -12 1 -11 -16 4 -12 10 -19 13 -15 7 4 -7 2
-13 -3 -13 -6 0 -11 -6 -11 -14 0 -7 -7 -19 -15 -26 -8 -7 -12 -16 -9 -21 3
-5 2 -9 -3 -8 -16 4 -65 -22 -92 -49 -15 -15 -44 -36 -64 -47 -21 -11 -40 -28
-43 -37 -3 -10 -10 -18 -15 -18 -6 0 -7 -6 -3 -12 6 -10 5 -10 -7 -1 -19 15
-39 -1 -39 -30 0 -10 -4 -15 -10 -12 -5 3 -10 -1 -10 -11 0 -13 -3 -14 -14 -5
-11 9 -16 9 -23 -2 -4 -8 -17 -19 -28 -25 -14 -8 -16 -12 -5 -12 13 0 13 -1 0
-10 -10 -7 10 -10 65 -10 77 0 81 1 104 31 16 20 31 29 43 26 13 -4 18 0 18
16 0 21 65 106 107 140 12 10 24 25 27 35 7 22 55 51 81 49 12 -1 19 3 17 11
-1 7 8 16 20 21 13 5 51 35 85 67 72 68 88 81 163 131 30 20 57 39 60 42 3 3
15 11 27 18 17 10 22 9 27 -2 3 -9 -11 -31 -36 -55 -38 -36 -56 -45 -80 -41
-5 0 -8 -8 -8 -19 0 -11 -6 -20 -12 -20 -10 0 -10 -2 -1 -8 10 -6 9 -12 -3
-28 -13 -15 -15 -16 -10 -2 3 12 1 15 -9 12 -8 -3 -17 -16 -21 -27 -4 -12 -24
-37 -45 -55 -22 -19 -39 -40 -39 -48 0 -8 -4 -14 -10 -14 -5 0 -10 -5 -10 -11
0 -5 6 -7 13 -3 12 7 -50 -65 -68 -78 -5 -4 -10 -11 -10 -15 0 -4 -14 -22 -30
-39 -17 -16 -41 -44 -54 -62 -14 -17 -27 -29 -30 -27 -3 2 -7 -8 -7 -21 -2
-23 0 -24 71 -24 47 0 78 5 87 13 7 7 35 28 61 46 27 18 51 39 54 47 3 8 11
14 18 14 7 0 16 7 19 16 3 8 11 12 17 9 6 -4 17 3 26 14 12 19 17 20 31 9 9
-7 13 -8 9 -2 -4 7 13 28 41 50 26 21 51 44 55 51 4 7 15 13 22 13 8 0 15 5
15 12 0 6 18 26 40 45 22 19 40 41 40 49 0 9 5 12 10 9 6 -3 13 1 16 9 3 9 11
13 16 10 10 -7 88 63 88 79 0 5 14 22 30 39 30 29 30 31 30 139 0 60 -4 109
-8 109 -5 0 -18 -11 -30 -25 -12 -13 -46 -40 -77 -60 -30 -19 -80 -51 -111
-71 -31 -20 -63 -33 -71 -30 -24 9 0 31 66 62 79 37 150 82 194 123 34 33 37
39 37 92 0 32 -4 61 -10 64 -5 3 -11 4 -11 1z"/>
<path d="M3350 377 c0 -8 -20 -36 -45 -62 -25 -27 -47 -57 -51 -67 -3 -10 -9
-16 -14 -13 -12 7 -56 -36 -52 -51 1 -5 -16 -20 -38 -33 -22 -12 -40 -27 -40
-32 0 -6 -4 -8 -8 -5 -4 2 -18 -11 -31 -30 -13 -19 -30 -34 -37 -34 -8 0 -14
-7 -14 -15 0 -8 -7 -15 -15 -15 -8 0 -15 -4 -15 -10 0 -14 166 -13 193 1 12 7
30 20 40 30 10 11 26 19 36 19 11 0 21 9 24 21 4 14 10 18 19 13 11 -6 11 -5
0 8 -10 13 -8 15 15 16 68 0 63 -9 63 123 0 94 -3 124 -15 135 -13 13 -15 13
-15 1z"/>
</g>
</svg>
